# xmcd
#
# Track frame offsets:
#	150
#	10132
#	21867
#	32779
#	45266
#	56174
#	69455
#	81178
#	93123
#	104970
#	117630
#	129005
#	140131
#	151059
#	163370
#	175019
#	186989
#	200117
#	212740
#	223827
#
# Disc length: 3154 seconds
#
# Revision: 1
# Processed by: cddbd v1.5.2PL0 Copyright (c) Steve Scherf et al.
# Submitted via: EasyCDDAExtractor 10.0.3.1
#
DISCID=270c5014
DTITLE=Hank Williams - Long Gone Daddy [Disc 2]
DYEAR=2002
DGENRE=Country
TTITLE0=Honky Tonk Blues
TTITLE1=A Mansion On The Hill
TTITLE2=I Can't Help It
TTITLE3=I Saw The Light
TTITLE4=Moanin' The Blues
TTITLE5=Mind Your Own Business
TTITLE6=Kaw-Liga
TTITLE7=Long Gone Lonesome Blues
TTITLE8=You Win Again
TTITLE9=I Don't Care
TTITLE10=Nobody's Lonesome For Me
TTITLE11=(I Heard That) Lonesome Whistle
TTITLE12=Why Don't You Love Me
TTITLE13=Your Cheatin' Heart
TTITLE14=My Son Calls Another Man Daddy
TTITLE15=Take These Chains From My Heart
TTITLE16=Jambalaya (On The Bayou)
TTITLE17=I'm So Lonesome I Could Cry
TTITLE18=I'll Never Get Out Of This World Alive
TTITLE19=I'm A Long Gone Daddy
EXTD=
EXTT0=
EXTT1=
EXTT2=
EXTT3=
EXTT4=
EXTT5=
EXTT6=
EXTT7=
EXTT8=
EXTT9=
EXTT10=
EXTT11=
EXTT12=
EXTT13=
EXTT14=
EXTT15=
EXTT16=
EXTT17=
EXTT18=
EXTT19=
PLAYORDER=
